<svg xmlns="http://www.w3.org/2000/svg" viewBox="0 0 512 512">
  <defs>
    <filter id="hard-shadow" x="-10%" y="-10%" width="130%" height="130%">
      <feDropShadow dx="16" dy="16" stdDeviation="0" flood-color="#14140f" flood-opacity="1" />
    </filter>
    <filter id="inner-shadow" x="-10%" y="-10%" width="130%" height="130%">
      <feDropShadow dx="6" dy="6" stdDeviation="0" flood-color="#14140f" flood-opacity="1" />
    </filter>
  </defs>
  <rect x="24" y="24" width="440" height="440" rx="96" fill="#f4f4f0" stroke="#14140f" stroke-width="12" filter="url(#hard-shadow)" />
  <rect x="76" y="76" width="336" height="336" rx="48" fill="#eaeae4" stroke="#4a4a42" stroke-width="4" />
  <circle cx="116" cy="116" r="8" fill="#2A2823" />
  <circle cx="372" cy="116" r="8" fill="#2A2823" />
  <circle cx="116" cy="372" r="8" fill="#2A2823" />
  <circle cx="372" cy="372" r="8" fill="#2A2823" />
  <g filter="url(#inner-shadow)">
    <path d="M 132 244 L 132 180 L 272 180 L 272 132 L 392 212 L 272 292 L 272 244 Z"
          fill="#ff5a1f" stroke="#14140f" stroke-width="8" stroke-linejoin="round" />
  </g>
  <g filter="url(#inner-shadow)">
    <path d="M 380 268 L 380 332 L 240 332 L 240 380 L 120 300 L 240 220 L 240 268 Z"
          fill="#3ad0ff" stroke="#14140f" stroke-width="8" stroke-linejoin="round" />
  </g>
  <circle cx="350" cy="116" r="10" fill="#c8f02b" stroke="#14140f" stroke-width="3" />
</svg>
