<svg xmlns="http://www.w3.org/2000/svg" fill="none" viewBox="0 0 128 128"><g id="mostly-clear-day__mostly-clear-day" clip-path="url(#mostly-clear-day__clip0_1858_8340)"><g id="mostly-clear-day__Sky"><g id="mostly-clear-day__Sun"><circle id="mostly-clear-day__Core" cx="50" cy="62" r="12.5" fill="url(#mostly-clear-day__paint0_linear_1858_8340)" stroke="#f8af18"/><g id="mostly-clear-day__Rays"><path fill="#f8af18" d="M48 32a2 2 0 1 1 4 0v9.333a2 2 0 1 1-4 0zM69.799 39.373a2 2 0 1 1 2.828 2.828l-6.6 6.6a2 2 0 0 1-2.828-2.829zM80 60a2 2 0 1 1 0 4h-9.333a2 2 0 1 1 0-4zM72.627 81.799a2 2 0 1 1-2.828 2.828l-6.6-6.6a2 2 0 0 1 2.829-2.828zM48 82.667a2 2 0 1 1 4 0V92a2 2 0 1 1-4 0zM33.972 75.2a2 2 0 0 1 2.829 2.828l-6.6 6.6a2 2 0 1 1-2.828-2.829zM29.333 60a2 2 0 1 1 0 4H20a2 2 0 1 1 0-4zM36.8 45.972a2 2 0 0 1-2.828 2.829l-6.6-6.6a2 2 0 1 1 2.829-2.828z"/><animateTransform attributeName="transform" begin="0s" dur="6s" repeatCount="indefinite" type="rotate" values="0 50.0 62.0;360 50.0 62.0"/></g></g><g id="mostly-clear-day__Clouds"><g id="mostly-clear-day__Cloud"><path id="mostly-clear-day__Cloud_2" fill="url(#mostly-clear-day__paint1_linear_1858_8340)" stroke="#e6effc" stroke-miterlimit="10" d="M58.014 59.889c3.322-5.529 10.351-7.921 16.294-5.364 5.984 2.575 9.206 9.392 7.678 15.698l-.156.647.665-.03c4.915-.22 9.005 3.93 9.005 8.82 0 4.737-3.855 8.839-8.617 8.839-12.371-.011-24.747.001-37.116.001-4.784.001-8.79-3.869-9.226-8.612-.437-4.752 2.796-9.317 7.5-10.23l.477-.094-.08-.48c-.558-3.337.853-6.826 3.625-8.764 2.735-1.911 6.422-2.019 9.26-.263l.43.265z"/></g><animateTransform attributeName="transform" begin="0s" calcMode="spline" dur="3s" keySplines=".42 0 .58 1; .42 0 .58 1" repeatCount="indefinite" type="translate" values="0 0;0 -3;0 0"/></g></g></g><defs><linearGradient id="mostly-clear-day__paint0_linear_1858_8340" x1="50" x2="50" y1="49" y2="75" gradientUnits="userSpaceOnUse"><stop stop-color="#fbbf24"/><stop offset="1" stop-color="#f8af18"/></linearGradient><linearGradient id="mostly-clear-day__paint1_linear_1858_8340" x1="64.001" x2="64.001" y1="53" y2="89" gradientUnits="userSpaceOnUse"><stop stop-color="#f3f7fe"/><stop offset="1" stop-color="#e6effc"/></linearGradient><clipPath id="mostly-clear-day__clip0_1858_8340"><rect width="128" height="128" fill="#fff"/></clipPath></defs></svg>