<svg xmlns="http://www.w3.org/2000/svg" fill="none" viewBox="0 0 128 128"><g id="sun-hot__sun-hot" clip-path="url(#sun-hot__clip0_1878_4673)"><g id="sun-hot__Mask group"><mask id="sun-hot__mask0_1878_4673" width="128" height="128" x="0" y="0" maskUnits="userSpaceOnUse" style="mask-type:alpha"><path id="sun-hot__Mask" fill="#000" d="M0 0h128L0 128z"/></mask><g mask="url(#sun-hot__mask0_1878_4673)"><g id="sun-hot__Sun"><circle id="sun-hot__Core" cx="64" cy="64" r="19.5" fill="url(#sun-hot__paint0_linear_1878_4673)" stroke="#f8af18"/><g id="sun-hot__Rays"><path fill="#f8af18" d="M61 19a3 3 0 1 1 6 0v14a3 3 0 0 1-6 0zM93.699 30.059A3 3 0 1 1 97.94 34.3l-9.9 9.9a3 3 0 1 1-4.242-4.243zM109 61a3 3 0 1 1 0 6H95a3 3 0 1 1 0-6zM97.941 93.699a3 3 0 1 1-4.243 4.242l-9.899-9.9a3 3 0 1 1 4.243-4.242zM61 95a3 3 0 1 1 6 0v14a3 3 0 1 1-6 0zM39.958 83.799a3 3 0 1 1 4.243 4.243l-9.9 9.9a3 3 0 1 1-4.242-4.243zM33 61a3 3 0 1 1 0 6H19a3 3 0 0 1 0-6zM44.201 39.958a3 3 0 1 1-4.243 4.243l-9.9-9.9a3 3 0 1 1 4.243-4.242z"/><animateTransform attributeName="transform" begin="0s" dur="6s" repeatCount="indefinite" type="rotate" values="0 64.0 64.0;360 64.0 64.0"/></g></g></g></g><path id="sun-hot__path" stroke="#e2e8f0" stroke-linecap="round" stroke-width="2" d="M47.105 96.395q-2.21-6.275 4.066-4.066t4.066-4.065 4.065-4.066 4.066-4.066 4.066-4.066T71.5 72t4.066-4.066 4.066-4.066 4.066-4.065 4.066-4.066 4.065-4.066 4.066-4.066"/><path id="sun-hot__path_2" stroke="#e2e8f0" stroke-linecap="round" stroke-width="2" d="M62.105 96.395q-2.21-6.275 4.066-4.066t4.066-4.065 4.065-4.066 4.066-4.066 4.066-4.066T86.5 72t4.066-4.066 4.066-4.066 4.066-4.065 4.065-4.066q-2.209-6.276 4.066-4.066t4.066-4.066"/></g><defs><linearGradient id="sun-hot__paint0_linear_1878_4673" x1="64" x2="64" y1="44" y2="84" gradientUnits="userSpaceOnUse"><stop stop-color="#fbbf24"/><stop offset="1" stop-color="#f8af18"/></linearGradient><clipPath id="sun-hot__clip0_1878_4673"><rect width="128" height="128" fill="#fff"/></clipPath></defs></svg>